<svg width="79" height="79" viewBox="0 0 79 79" fill="none" xmlns="http://www.w3.org/2000/svg">
<path d="M40 5V24L22 29.5L40 5Z" fill="#CFC167"/>
<path d="M40 5V24L58 29.5L40 5Z" fill="#ABA065"/>
<path d="M40 47L43 44L42 53H40V47Z" fill="#B9B9B9"/>
<path d="M40 47L37 44L38 53H40V47Z" fill="#F4F4F4"/>
<path d="M40 52L69 27.5L40 74V52Z" fill="#D7D7D7"/>
<path d="M40 52L11 27.5L40 74V52Z" fill="white"/>
<path d="M40 24L58 29.5L40 47V24Z" fill="#858067"/>
<path d="M40 24L22 29.5L40 47V24Z" fill="#BFB26A"/>
</svg>
