<svg width="34" height="33" viewBox="0 0 34 33" fill="none" xmlns="http://www.w3.org/2000/svg">
<path d="M14.0455 9.57981C17.4348 6.27897 25.91 12.054 14.0455 19.4804C2.18099 12.054 10.6562 6.28094 14.0455 9.57981Z" fill="current"/>
<path d="M27.2849 13.5613C27.2893 16.2897 26.3913 18.9476 24.7226 21.1456C24.804 21.2048 24.8814 21.2679 24.9568 21.3389L32.7986 28.935C33.1808 29.305 33.3956 29.8069 33.3958 30.3302C33.396 30.8536 33.1815 31.3556 32.7996 31.7259C32.4177 32.0961 31.8996 32.3042 31.3593 32.3043C30.819 32.3045 30.3007 32.0968 29.9185 31.7268L22.0767 24.1308C22.003 24.0602 21.9349 23.9844 21.8731 23.9039H21.8771C19.4774 25.6093 16.5544 26.4817 13.5799 26.3803C10.6054 26.2789 7.7529 25.2096 5.48286 23.3449C3.21282 21.4803 1.65763 18.9291 1.0683 16.103C0.478964 13.277 0.889866 10.3411 2.23469 7.7691C3.57951 5.19709 5.77979 3.13906 8.48041 1.92716C11.181 0.715261 14.2245 0.420201 17.1195 1.0896C20.0145 1.759 22.5922 3.3538 24.4365 5.61662C26.2809 7.87943 27.2844 10.6782 27.2849 13.5613ZM14.0455 24.4129C15.5167 24.4129 16.9734 24.1322 18.3326 23.5869C19.6917 23.0415 20.9267 22.2422 21.9669 21.2345C23.0072 20.2269 23.8324 19.0306 24.3953 17.714C24.9583 16.3975 25.2481 14.9864 25.2481 13.5613C25.2481 12.1363 24.9583 10.7252 24.3953 9.40863C23.8324 8.09205 23.0072 6.89579 21.9669 5.88813C20.9267 4.88047 19.6917 4.08115 18.3326 3.5358C16.9734 2.99046 15.5167 2.70978 14.0455 2.70978C11.0744 2.70978 8.22503 3.85307 6.12414 5.88813C4.02326 7.92319 2.84299 10.6833 2.84299 13.5613C2.84299 16.4393 4.02326 19.1995 6.12414 21.2345C8.22503 23.2696 11.0744 24.4129 14.0455 24.4129Z" fill="current"/>
</svg>
